<?xml version="1.0" encoding="utf-8"?>
<!-- Generator: Adobe Illustrator 16.0.0, SVG Export Plug-In . SVG Version: 6.00 Build 0)  -->
<!DOCTYPE svg PUBLIC "-//W3C//DTD SVG 1.1//EN" "http://www.w3.org/Graphics/SVG/1.1/DTD/svg11.dtd">
<svg version="1.1" id="Capa_1" xmlns="http://www.w3.org/2000/svg" xmlns:xlink="http://www.w3.org/1999/xlink" x="0px" y="0px"
	 width="119px" height="50px" viewBox="0 0 119 50" enable-background="new 0 0 119 50" xml:space="preserve">
<g>
	<path fill-rule="evenodd" clip-rule="evenodd" fill="#FFFFFF" d="M98.686,22.316c0.345,0.155,0.651,0.296,1.015,0.469
		c0-0.188,0-0.285,0-0.38c0-0.717,0-1.445,0-2.162c0-0.078,0-0.153,0-0.229c0.041-0.689,0.256-0.902,0.947-0.902
		c1.032,0,2.052,0.003,3.086-0.004c0.114,0,0.242-0.056,0.355-0.097c0.004-0.029,0.013-0.058,0.015-0.102
		c-0.117-0.093-0.225-0.199-0.363-0.266c-0.642-0.327-1.31-0.594-1.929-0.968c-1.545-0.937-2.203-2.366-2.175-4.146
		c0.016-1.281,0.551-2.333,1.409-3.236c0.888-0.944,1.957-1.629,3.079-2.252c0.792-0.447,1.593-0.863,2.353-1.344
		c0.438-0.275,0.821-0.632,1.185-0.996c0.143-0.136,0.169-0.395,0.214-0.607c0.038-0.135,0.011-0.287,0.011-0.5
		c0.228,0.186,0.42,0.339,0.587,0.503c0.726,0.661,1.415,1.342,1.848,2.232c0.439,0.903,0.538,1.849,0.414,2.834
		c-0.184,1.313-0.786,2.388-1.732,3.296c-0.732,0.684-1.442,1.377-2.166,2.076c-0.662,0.642-1.154,1.388-1.308,2.323
		c-0.029,0.2-0.051,0.405-0.049,0.604c0.002,0.439,0.214,0.646,0.648,0.65c0.946,0.003,1.892,0,2.836,0
		c0.681,0,0.96,0.293,0.96,0.973c0,0.794,0.013,1.588-0.004,2.387c-0.002,0.192,0.045,0.273,0.246,0.319
		c0.719,0.154,0.713,0.168,1.086-0.45c0.085-0.135,0.162-0.264,0.301-0.477c0.058,0.231,0.102,0.382,0.143,0.532
		c0.094,0.385,0.3,0.494,0.65,0.318c0.207-0.109,0.4-0.261,0.676-0.431c-0.085,0.413-0.156,0.761-0.205,1.017
		c0.876,0.518,1.71,0.983,2.512,1.475c0.212,0.129,0.403,0.313,0.59,0.501c0.135,0.136,0.25,0.126,0.374,0.005
		c0.127-0.117,0.243-0.24,0.425-0.4c0.047,0.135,0.092,0.217,0.104,0.307c0.028,0.133,0.043,0.258,0.054,0.387
		c0.04,0.341,0.173,0.593,0.54,0.683c0.102,0.019,0.19,0.095,0.359,0.19c-0.207,0.086-0.344,0.177-0.473,0.2
		c-0.288,0.032-0.384,0.208-0.422,0.465c-0.113,1.024-0.627,1.815-1.546,2.288c-0.508,0.259-1.085,0.405-1.638,0.587
		c-0.218,0.071-0.457,0.128-0.696,0.166c-0.243,0.046-0.254,0.172-0.164,0.354c0.097,0.215,0.2,0.434,0.3,0.643
		c-0.017,0.026-0.045,0.05-0.062,0.075c-0.094-0.057-0.206-0.101-0.301-0.173c-0.144-0.101-0.281-0.242-0.438-0.318
		c-0.379-0.189-0.638-0.104-0.846,0.255c-0.105,0.172-0.215,0.359-0.338,0.53c-0.108,0.163-0.215,0.148-0.298-0.037
		c-0.051-0.134-0.087-0.271-0.125-0.394c-0.076-0.219-0.124-0.481-0.438-0.437c-0.279,0.036-0.364,0.177-0.364,0.551
		c-0.004,0.892-0.004,1.783-0.004,2.673c0,1.203,0,2.405,0,3.614c0,0.225-0.004,0.461,0.267,0.551
		c0.245,0.081,0.515-0.063,0.662-0.328c0.087-0.15,0.141-0.317,0.232-0.537c0.071,0.139,0.135,0.215,0.171,0.299
		c0.153,0.362,0.38,0.519,0.739,0.397c0.825-0.273,1.637-0.569,2.438-0.896c0.369-0.151,0.428-0.353,0.311-0.744
		c-0.05-0.175-0.102-0.355-0.156-0.548c0.03-0.016,0.05-0.034,0.08-0.059c0.163,0.107,0.331,0.218,0.491,0.348
		c0.465,0.371,0.522,0.354,0.731-0.192c0.045-0.117,0.133-0.227,0.188-0.347c0.096,0.115,0.218,0.204,0.288,0.335
		c0.115,0.221,0.28,0.321,0.552,0.308c0.234-0.009,0.479,0.042,0.709,0.062c0.027,0,0.043,0.037,0.104,0.094
		c-0.201,0.159-0.379,0.314-0.579,0.453c-0.328,0.231-0.344,0.273-0.234,0.661c0.015,0.074,0.022,0.164,0.052,0.326
		c-0.273-0.094-0.494-0.152-0.706-0.229c-0.327-0.124-0.402-0.093-0.542,0.224c-0.05,0.112-0.132,0.227-0.19,0.342
		c-0.104-0.097-0.223-0.189-0.304-0.304c-0.094-0.139-0.167-0.226-0.352-0.154c-0.909,0.328-1.831,0.646-2.731,0.981
		c-0.361,0.132-0.361,0.16-0.276,0.528c0.03,0.155,0.035,0.323,0.067,0.484c-0.032,0.018-0.05,0.043-0.083,0.063
		c-0.157-0.068-0.313-0.143-0.474-0.21c-0.323-0.153-0.417-0.127-0.555,0.205c-0.092,0.212-0.215,0.432-0.317,0.649
		c-0.043-0.014-0.071-0.022-0.115-0.034c0-0.217,0.01-0.452,0-0.665c-0.02-0.186-0.042-0.364-0.096-0.542
		c-0.03-0.066-0.141-0.148-0.205-0.144c-0.055,0.004-0.132,0.119-0.152,0.192c-0.03,0.08-0.015,0.171-0.015,0.253
		c0,1.636,0,3.262,0,4.886c0,0.511-0.139,0.685-0.644,0.63c-0.594-0.062-1.181-0.19-1.771-0.312
		c-2.027-0.398-4.039-0.812-6.066-1.217c-0.438-0.084-0.866-0.174-1.303-0.259c-0.29-0.057-0.433-0.241-0.436-0.529
		c-0.003-0.76-0.004-1.514-0.005-2.277c0-0.478-0.398-0.773-0.86-0.627c-0.188,0.056-0.354,0.153-0.535,0.238
		c-0.159,0.065-0.292,0.056-0.269-0.159c0.035-0.426-0.19-0.625-0.544-0.777c-0.979-0.44-1.956-0.894-2.917-1.359
		c-0.219-0.107-0.372-0.084-0.552,0.053c-0.344,0.261-0.446,0.216-0.538-0.185c-0.093-0.442-0.11-0.452-0.566-0.539
		c-0.175-0.027-0.35-0.08-0.581-0.129c0.118-0.185,0.189-0.34,0.298-0.454c0.23-0.232,0.317-0.496,0.216-0.812
		c-0.374-1.158,0.314-2.308,1.217-2.817c0.596-0.33,1.201-0.644,1.813-0.944c0.24-0.122,0.289-0.278,0.229-0.518
		c-0.058-0.209-0.106-0.418-0.164-0.628c0.022-0.023,0.052-0.043,0.071-0.065c0.152,0.117,0.324,0.222,0.462,0.351
		c0.568,0.552,0.599,0.557,1.127-0.02c0.053-0.065,0.069-0.155,0.106-0.236c0.049,0.029,0.095,0.047,0.14,0.075
		c0.025,0.134,0.06,0.27,0.073,0.409c0.024,0.206,0.094,0.333,0.332,0.291c0.42-0.089,0.847-0.172,1.263-0.28
		c0.078-0.011,0.173-0.15,0.173-0.229C99.7,28.638,99.7,26.41,99.7,24.089c-0.117,0.135-0.199,0.201-0.271,0.289
		c-0.175,0.202-0.283,0.2-0.424-0.033c-0.249-0.412-0.254-0.428-0.733-0.259c-0.72,0.273-1.444,0.57-2.159,0.85
		c-0.318,0.127-0.639,0.252-0.96,0.385c0.047,0.243,0.077,0.461,0.132,0.752c-0.185-0.051-0.315-0.072-0.436-0.125
		c-0.378-0.166-0.557-0.095-0.716,0.276c-0.01,0.041-0.02,0.076-0.045,0.1c-0.094,0.12-0.189,0.233-0.289,0.347
		c-0.08-0.104-0.173-0.202-0.235-0.318c-0.128-0.218-0.289-0.266-0.536-0.218c-0.305,0.067-0.622,0.093-0.939,0.137
		c-0.009-0.037-0.029-0.069-0.049-0.106c0.096-0.102,0.185-0.216,0.289-0.301c0.09-0.081,0.204-0.136,0.304-0.195
		c0.521-0.345,0.546-0.466,0.223-1.004c-0.065-0.113-0.108-0.23-0.194-0.423c0.258,0.109,0.44,0.188,0.62,0.256
		c0.399,0.158,0.618,0.077,0.811-0.313c0.07-0.129,0.146-0.25,0.27-0.447c0.091,0.188,0.17,0.3,0.215,0.438
		c0.103,0.306,0.212,0.394,0.507,0.295c1.087-0.362,2.176-0.735,3.253-1.123c0.113-0.038,0.218-0.211,0.257-0.338
		C98.652,22.801,98.652,22.577,98.686,22.316z M108.004,36.885c0-1.815,0-3.633,0-5.441c0-0.418-0.057-0.474-0.48-0.446
		c-0.672,0.047-1.354,0.105-2.041,0.164c-0.203,0.022-0.317,0.112-0.366,0.336c-0.094,0.424-0.104,0.419-0.508,0.248
		c-0.481-0.203-0.671-0.173-1.028,0.205c-0.16,0.159-0.305,0.34-0.466,0.507c-0.042,0.047-0.128,0.065-0.187,0.095
		c-0.038-0.063-0.089-0.138-0.099-0.207c-0.04-0.155-0.054-0.324-0.084-0.495c-0.042-0.213-0.16-0.348-0.397-0.351
		c-0.119,0-0.254,0.003-0.385,0.011c-0.227,0.025-0.332,0.135-0.326,0.383c0.015,0.475,0.006,0.945,0.006,1.421
		c0,2.592,0,5.191,0.002,7.785c0,0.507,0.1,0.629,0.596,0.729c0.926,0.181,1.845,0.368,2.771,0.56
		c0.752,0.146,1.502,0.299,2.251,0.447c0.592,0.114,0.741-0.011,0.741-0.606C108.004,40.448,108.004,38.664,108.004,36.885z
		 M104.837,29.599c0.044,0.205,0.07,0.35,0.101,0.483c0.046,0.149,0.024,0.362,0.269,0.358c0.818-0.036,1.646-0.066,2.46-0.095
		c0.241-0.016,0.343-0.119,0.343-0.389c-0.01-2.722-0.005-5.44-0.005-8.163c0-0.587-0.229-0.792-0.846-0.792
		c-1.588-0.004-3.172,0-4.761,0c-0.594,0-0.755,0.168-0.755,0.752c0,2.935,0,5.867,0,8.8c0,0.082,0.002,0.152,0,0.233
		c-0.007,0.143,0.048,0.223,0.206,0.209c0.313-0.042,0.631-0.066,0.937-0.104c0.259-0.044,0.381-0.199,0.358-0.463
		c-0.006-0.188-0.001-0.382-0.001-0.665c0.25,0.177,0.442,0.3,0.628,0.433c0.163,0.109,0.314,0.113,0.465-0.032
		C104.417,29.988,104.59,29.823,104.837,29.599z M108.438,6.862c-0.292,0.38-0.533,0.775-0.869,1.083
		c-0.702,0.665-1.449,1.281-2.186,1.919c-0.864,0.764-1.707,1.541-2.33,2.539c-0.821,1.353-0.895,2.727-0.225,4.149
		c0.325,0.711,0.822,1.28,1.567,1.587c0.333,0.14,0.399,0.071,0.422-0.281c0.02-0.483,0.006-0.972,0.11-1.435
		c0.303-1.344,1.099-2.463,1.783-3.636c0.585-1.006,1.165-2.023,1.736-3.053c0.27-0.508,0.414-1.072,0.363-1.659
		C108.772,7.632,108.758,7.167,108.438,6.862z M98.508,32.619c-0.02,0.026-0.049,0.058-0.073,0.086
		c-0.241-0.064-0.489-0.123-0.726-0.208c-0.156-0.055-0.256-0.04-0.351,0.099c-0.058,0.075-0.157,0.109-0.239,0.167
		c-0.048-0.076-0.102-0.165-0.129-0.252c-0.071-0.195-0.147-0.335-0.395-0.222c-0.16,0.068-0.332,0.103-0.494,0.159
		c-0.824,0.304-1.581,0.692-2.106,1.428c-0.321,0.451-0.431,0.969-0.321,1.521c0.055,0.253,0.176,0.287,0.394,0.135
		c0.034-0.026,0.063-0.06,0.105-0.084c0.054-0.023,0.144-0.072,0.164-0.063c0.045,0.046,0.083,0.134,0.089,0.191
		c0.011,0.073-0.003,0.151-0.025,0.219c-0.089,0.232,0.005,0.32,0.233,0.333c0.389,0.028,0.449,0.104,0.36,0.492
		c-0.045,0.202-0.017,0.331,0.188,0.422c0.934,0.408,1.854,0.829,2.78,1.229c0.312,0.144,0.392,0.083,0.396-0.264
		c0.005-0.162,0.001-0.323,0.001-0.485c0.034-0.005,0.059-0.01,0.092-0.019c0.063,0.089,0.126,0.181,0.195,0.27
		c0.095,0.142,0.184,0.276,0.292,0.405c0.129,0.181,0.34,0.205,0.518,0.132c0.184-0.07,0.245-0.243,0.244-0.449
		c-0.001-1.918-0.001-3.834,0.001-5.758c0-0.212-0.085-0.328-0.275-0.309c-0.332,0.029-0.671,0.091-1.008,0.154
		c-0.171,0.032-0.186,0.14-0.096,0.284C98.405,32.349,98.449,32.488,98.508,32.619z M115.02,27.478
		c-0.03-0.037-0.044-0.074-0.074-0.108c0.086-0.098,0.155-0.195,0.236-0.286c0.275-0.274,0.275-0.42-0.005-0.679
		c-0.04-0.035-0.07-0.066-0.107-0.089c-0.135-0.104-0.127-0.218,0.017-0.285c0.297-0.142,0.188-0.331,0.049-0.49
		c-0.551-0.618-1.276-0.962-2.04-1.236c-0.161-0.067-0.262,0.003-0.314,0.194c-0.053,0.233-0.145,0.457-0.246,0.761
		c-0.155-0.208-0.247-0.328-0.339-0.452c-0.355-0.495-0.645-0.547-1.146-0.219c-0.076,0.052-0.187,0.068-0.269,0.094
		c-0.026-0.1-0.077-0.2-0.073-0.299c0.041-0.525-0.196-0.752-0.759-0.744c-0.002,0.06-0.021,0.126-0.021,0.192
		c-0.004,1.871-0.004,3.737,0.009,5.61c0,0.113,0.021,0.237,0.057,0.354c0.055,0.236,0.255,0.24,0.413,0.184
		c0.104-0.037,0.227-0.18,0.247-0.3c0.046-0.171,0.007-0.362,0.007-0.557c0.049-0.009,0.093-0.019,0.124-0.014
		c0.153,0.048,0.296,0.099,0.443,0.152c0.418,0.163,0.59,0.095,0.811-0.302c0.047-0.088,0.108-0.159,0.208-0.301
		c0.058,0.185,0.099,0.284,0.132,0.391c0.115,0.388,0.155,0.411,0.559,0.404c1.003-0.044,1.859-0.45,2.635-1.043
		c0.247-0.194,0.438-0.456,0.438-0.804c0.002-0.28-0.072-0.332-0.332-0.266C115.457,27.397,115.233,27.437,115.02,27.478z"/>
	<path fill-rule="evenodd" clip-rule="evenodd" fill="#FFFFFF" d="M15.131,27.299c-0.866,0-1.686,0-2.53,0
		c0-5.579,0-11.138,0-16.729c1.271,0,2.526,0,3.813,0c0.679,3.235,1.357,6.47,2.034,9.705c0.014,0,0.024,0,0.042,0
		c0.673-3.222,1.346-6.452,2.022-9.696c1.245,0,2.487,0,3.758,0c0,5.567,0,11.128,0,16.711c-0.826,0-1.644,0-2.484,0
		c0-4.275,0-8.541,0-12.812c-0.026-0.002-0.046-0.002-0.065-0.004c-0.064,0.292-0.134,0.587-0.19,0.878
		c-0.471,2.387-0.939,4.775-1.408,7.163c-0.297,1.517-0.607,3.025-0.894,4.549c-0.04,0.201-0.115,0.256-0.31,0.25
		c-0.233-0.016-0.47-0.006-0.707-0.006c-0.459,0-0.463,0.003-0.554-0.462c-0.573-2.89-1.147-5.792-1.722-8.688
		c-0.253-1.274-0.519-2.542-0.806-3.815C15.131,18.656,15.131,22.953,15.131,27.299z"/>
	<path fill-rule="evenodd" clip-rule="evenodd" fill="#FFFFFF" d="M26.991,10.579c0.86,0,1.698-0.002,2.531,0.013
		c0.08,0.002,0.184,0.135,0.221,0.228c0.529,1.427,1.054,2.859,1.578,4.294c0.58,1.578,1.148,3.164,1.724,4.741
		c0.012,0.045,0.042,0.08,0.111,0.197c0-0.202,0-0.318,0-0.438c0-2.889,0.001-5.771-0.005-8.661c0-0.292,0.068-0.391,0.378-0.383
		c0.647,0.027,1.3,0.022,1.958,0c0.258-0.003,0.327,0.086,0.326,0.344c-0.01,2.974-0.004,5.947-0.004,8.922
		c0,2.379-0.01,4.756,0.006,7.143c0,0.284-0.069,0.384-0.363,0.376c-0.629-0.025-1.258-0.025-1.897-0.006
		c-0.205,0.006-0.306-0.056-0.38-0.26c-1.056-3.019-2.111-6.042-3.163-9.059c-0.126-0.347-0.242-0.701-0.433-1.047
		c0,0.104,0,0.206,0,0.305c0,3.215,0,6.443,0,9.663c0,0.39,0,0.395-0.379,0.395c-0.624,0.004-1.248,0-1.869,0
		c-0.104,0-0.214,0-0.338,0C26.991,21.75,26.991,16.19,26.991,10.579z"/>
	<path fill-rule="evenodd" clip-rule="evenodd" fill="#FFFFFF" d="M70.578,23.61c-0.173,1.25-0.339,2.46-0.501,3.68
		c-0.94,0-1.863,0-2.806,0c1.025-5.591,2.049-11.144,3.075-16.72c1.203,0,2.381,0,3.6,0c1.023,5.563,2.053,11.124,3.076,16.704
		c-0.089,0.016-0.163,0.034-0.237,0.034c-0.771,0.003-1.545-0.005-2.314,0.006c-0.202,0.002-0.266-0.074-0.295-0.269
		c-0.125-1.036-0.266-2.085-0.404-3.122c-0.026-0.229-0.101-0.33-0.35-0.325C72.483,23.624,71.551,23.61,70.578,23.61z
		 M73.266,21.054c-0.369-2.372-0.74-4.712-1.099-7.063c-0.015,0-0.021,0-0.037,0c-0.374,2.354-0.751,4.7-1.129,7.063
		C71.756,21.054,72.488,21.054,73.266,21.054z"/>
	<path fill-rule="evenodd" clip-rule="evenodd" fill="#FFFFFF" d="M1.521,27.29c1.028-5.583,2.05-11.144,3.081-16.733
		c0.606,0,1.194,0,1.784,0c0.536,0,1.069,0.005,1.602-0.005c0.16-0.003,0.228,0.054,0.255,0.21c0.353,1.958,0.707,3.917,1.067,5.868
		c0.346,1.881,0.689,3.763,1.039,5.638c0.3,1.626,0.609,3.253,0.915,4.873c0.005,0.032,0,0.075,0,0.143c-0.915,0-1.83,0-2.789,0
		c-0.164-1.197-0.331-2.408-0.504-3.65c-1.033,0-2.078,0-3.147,0c-0.163,1.202-0.33,2.423-0.502,3.656
		C3.389,27.29,2.467,27.29,1.521,27.29z M6.43,14.114c-0.02,0-0.044,0.005-0.069,0.005c-0.365,2.3-0.735,4.614-1.108,6.935
		c0.784,0,1.521,0,2.294,0C7.171,18.72,6.8,16.417,6.43,14.114z"/>
	<path fill-rule="evenodd" clip-rule="evenodd" fill="#FFFFFF" d="M52.19,14.354c-0.928,0.107-1.764,0.194-2.59,0.295
		c-0.221,0.03-0.248-0.101-0.264-0.266c-0.03-0.462-0.199-0.877-0.532-1.205c-0.423-0.406-0.951-0.441-1.469-0.284
		c-0.451,0.142-0.693,0.521-0.796,0.984c-0.229,0.95,0.142,1.741,0.781,2.382c0.829,0.824,1.733,1.575,2.6,2.365
		c0.851,0.779,1.599,1.64,2.02,2.729c0.329,0.87,0.42,1.77,0.221,2.677c-0.093,0.395-0.196,0.785-0.369,1.145
		c-0.572,1.187-1.573,1.793-2.833,2.045c-0.719,0.152-1.447,0.196-2.166,0.028c-1.321-0.307-2.292-1.082-2.805-2.346
		c-0.238-0.592-0.335-1.242-0.5-1.872c-0.021-0.083,0.012-0.17,0.016-0.274c0.896-0.134,1.783-0.27,2.634-0.41
		c0.133,0.532,0.236,1.033,0.402,1.503c0.454,1.351,2.164,1.141,2.696,0.423c0.375-0.499,0.325-1.056,0.19-1.616
		c-0.218-0.852-0.814-1.458-1.418-2.028c-0.795-0.735-1.664-1.397-2.443-2.144c-1.139-1.085-1.836-2.415-1.833-4.026
		c0.005-1.029,0.228-2.014,0.939-2.825c0.606-0.699,1.4-1.094,2.296-1.215c0.647-0.082,1.324-0.113,1.968-0.018
		c1.295,0.195,2.195,0.981,2.711,2.171C51.876,13.125,52.006,13.73,52.19,14.354z"/>
	<path fill-rule="evenodd" clip-rule="evenodd" fill="#FFFFFF" d="M58.791,27.346c-0.408,0-0.775,0-1.142,0
		c-0.497,0-0.989-0.016-1.479,0.01c-0.243,0.005-0.323-0.087-0.298-0.314c0.006-0.071,0.001-0.137,0.001-0.208
		c0-4.417,0-8.831,0-13.251c0-0.137,0-0.275,0-0.449c-0.122-0.005-0.224-0.021-0.327-0.021c-0.714-0.005-1.43-0.005-2.136,0.003
		c-0.234,0.01-0.333-0.051-0.33-0.309c0.017-0.656,0.008-1.307,0.002-1.958c0-0.178,0.032-0.272,0.245-0.27c2.69,0,5.378,0,8.06,0
		c0.051,0,0.093,0.018,0.16,0.027c0,0.831,0,1.644,0,2.49c-0.914,0-1.816,0-2.757,0C58.791,17.857,58.791,22.572,58.791,27.346z"/>
	<path fill-rule="evenodd" clip-rule="evenodd" fill="#FFFFFF" d="M38.433,10.595c0.133-0.002,0.24-0.016,0.342-0.016
		c0.723,0,1.445,0,2.167,0c0.378,0,0.378,0,0.379,0.396c0,0.01,0,0.019,0,0.029c0,5.308,0,10.616,0,15.919
		c0,0.422-0.001,0.422-0.41,0.422c-0.716,0-1.429,0-2.139,0c-0.102,0-0.212,0-0.339,0C38.433,21.75,38.433,16.19,38.433,10.595z"/>
	<path fill-rule="evenodd" clip-rule="evenodd" fill="#FFFFFF" d="M63.194,10.597c0.076-0.005,0.139-0.018,0.194-0.018
		c0.814,0,1.618,0.006,2.431,0c0.185-0.002,0.285,0.048,0.26,0.248c-0.001,0.048,0,0.1,0,0.148c0,5.318,0,10.631,0,15.946
		c0,0.425,0,0.425-0.414,0.425c-0.71,0-1.425,0-2.131,0c-0.114,0-0.216,0-0.34,0C63.194,21.75,63.194,16.19,63.194,10.597z"/>
	<path fill-rule="evenodd" clip-rule="evenodd" fill="#FFFFFF" d="M60.954,35.685c0,0.969,0,1.936,0,2.904
		c0,1.02-0.003,2.035,0.001,3.057c0.009,0.208-0.051,0.303-0.277,0.294c-0.422-0.018-0.849,0-1.296,0c0-3.424,0-6.815,0-10.243
		c0.503,0,1.003-0.009,1.501,0.005c0.071,0,0.173,0.129,0.2,0.209c0.566,1.527,1.123,3.049,1.682,4.574
		c0.109,0.315,0.23,0.627,0.392,0.926c0-1.891,0-3.782,0-5.714c0.493,0,0.963-0.005,1.433,0.002c0.063,0,0.124,0.098,0.153,0.169
		c0.023,0.072,0.013,0.153,0.013,0.229c0,3.142,0,6.283,0,9.426c0,0.417,0,0.417-0.401,0.417c-0.11,0-0.22,0-0.332,0
		c-0.802,0-0.803,0-1.06-0.755c-0.494-1.402-0.98-2.811-1.467-4.211c-0.157-0.437-0.327-0.857-0.496-1.289
		C60.979,35.685,60.973,35.685,60.954,35.685z"/>
	<path fill-rule="evenodd" clip-rule="evenodd" fill="#FFFFFF" d="M5.164,31.696c0.515,0,1.007-0.009,1.496,0.005
		c0.078,0,0.187,0.139,0.22,0.235c0.566,1.508,1.119,3.041,1.679,4.567c0.112,0.301,0.229,0.607,0.376,0.906
		c0-1.889,0-3.779,0-5.693c0.545,0,1.061,0,1.602,0c0,3.393,0,6.792,0,10.212c-0.479,0-0.95,0.011-1.424-0.012
		c-0.056-0.005-0.14-0.117-0.169-0.199c-0.533-1.518-1.068-3.045-1.604-4.56c-0.172-0.505-0.359-1.005-0.567-1.588
		c0,2.156,0,4.238,0,6.336c-0.549,0-1.07,0-1.608,0C5.164,38.514,5.164,35.13,5.164,31.696z"/>
	<path fill-rule="evenodd" clip-rule="evenodd" fill="#FFFFFF" d="M29.894,31.696c0.516,0,1.006-0.009,1.498,0.005
		c0.074,0,0.179,0.139,0.216,0.229c0.519,1.383,1.021,2.766,1.531,4.151c0.162,0.444,0.329,0.885,0.535,1.323
		c0-1.894,0-3.777,0-5.694c0.541,0,1.059,0,1.596,0c0,3.398,0,6.783,0,10.218c-0.474,0-0.956,0.011-1.434-0.017
		c-0.063-0.006-0.141-0.141-0.179-0.225c-0.55-1.576-1.097-3.143-1.646-4.716c-0.153-0.445-0.318-0.89-0.513-1.333
		c0,2.085,0,4.168,0,6.268c-0.547,0-1.067,0-1.604,0C29.894,38.514,29.894,35.13,29.894,31.696z"/>
	<path fill-rule="evenodd" clip-rule="evenodd" fill="#FFFFFF" d="M28.874,41.929c-0.595,0-1.144,0.011-1.691-0.012
		c-0.064-0.005-0.152-0.137-0.179-0.222c-0.368-1.218-0.734-2.434-1.074-3.654c-0.071-0.228-0.158-0.331-0.4-0.303
		c-0.187,0.025-0.379,0.009-0.597,0.009c0,1.385,0,2.761,0,4.182c-0.582,0-1.116,0.011-1.66-0.012c-0.044,0-0.108-0.09-0.129-0.15
		c-0.023-0.069-0.01-0.155-0.01-0.228c0-3.159,0-6.31,0-9.455c0-0.391,0.001-0.393,0.391-0.391c0.886,0.005,1.769,0.005,2.66,0.049
		c0.899,0.04,1.662,0.382,2.09,1.219c0.317,0.622,0.381,1.299,0.348,1.978c-0.025,0.544-0.072,1.095-0.394,1.558
		c-0.221,0.322-0.499,0.583-0.798,0.925C27.892,38.856,28.374,40.362,28.874,41.929z M24.932,36.291c0.237,0,0.45,0.011,0.654,0
		c0.844-0.025,1.111-0.309,1.192-0.908c0.056-0.424,0.034-0.86,0.005-1.299c-0.026-0.348-0.196-0.692-0.532-0.79
		c-0.417-0.113-0.865-0.124-1.32-0.184C24.932,34.217,24.932,35.238,24.932,36.291z"/>
	<path fill-rule="evenodd" clip-rule="evenodd" fill="#FFFFFF" d="M57.892,36.79c0,0.915,0,1.823,0,2.727
		c0,1.412-0.857,2.38-2.268,2.488c-0.474,0.04-0.97,0.009-1.426-0.104c-0.951-0.226-1.576-1.046-1.665-2.063
		c-0.024-0.266-0.042-0.529-0.042-0.793c0-1.631-0.018-3.266,0.004-4.895c0.013-0.933,0.311-1.754,1.166-2.25
		c1.199-0.684,3.044-0.49,3.83,0.71c0.255,0.403,0.396,0.832,0.399,1.313C57.897,34.878,57.892,35.83,57.892,36.79z M56.093,36.815
		c0.004,0,0.007,0,0.007,0c0.005-0.251,0.006-0.497,0.005-0.744c-0.003-0.741-0.002-1.483-0.026-2.227
		c-0.006-0.313-0.131-0.588-0.479-0.699c-0.766-0.216-1.315,0.072-1.335,0.938c0,0.051,0,0.101,0,0.148
		c0,1.699-0.001,3.394,0.002,5.098c0,0.147,0.018,0.289,0.043,0.437c0.099,0.586,0.314,0.73,1.046,0.698
		c0.452-0.011,0.714-0.246,0.723-0.753C56.103,38.752,56.093,37.779,56.093,36.815z"/>
	<path fill-rule="evenodd" clip-rule="evenodd" fill="#FFFFFF" d="M42.052,41.912c-0.585,0-1.137,0-1.727,0
		c-0.1-0.731-0.199-1.464-0.301-2.214c-0.626,0-1.241,0-1.893,0c-0.055,0.373-0.111,0.759-0.166,1.146
		c-0.042,0.288-0.079,0.583-0.136,0.868c-0.018,0.087-0.115,0.204-0.177,0.204c-0.503,0.026-1.011,0.014-1.56,0.014
		c0.072-0.418,0.13-0.798,0.197-1.18c0.234-1.268,0.463-2.537,0.698-3.803c0.291-1.519,0.585-3.035,0.868-4.555
		c0.005-0.017,0.02-0.041,0.021-0.056c0.124-0.645,0.124-0.645,0.768-0.645c0.425,0,0.851,0.005,1.274-0.002
		c0.2-0.004,0.268,0.061,0.303,0.259c0.272,1.494,0.566,3,0.843,4.497c0.324,1.759,0.646,3.505,0.969,5.255
		C42.042,41.756,42.04,41.812,42.052,41.912z M39.11,33.964c-0.03,0-0.055,0-0.08,0c-0.204,1.366-0.409,2.729-0.625,4.103
		c0.476,0,0.895,0,1.341,0C39.527,36.675,39.322,35.325,39.11,33.964z"/>
	<path fill-rule="evenodd" clip-rule="evenodd" fill="#FFFFFF" d="M67.495,31.693c0.696,0,1.373-0.006,2.05,0.005
		c0.071,0.003,0.188,0.146,0.197,0.238c0.265,1.354,0.499,2.724,0.762,4.086c0.346,1.867,0.698,3.733,1.047,5.6
		c0.019,0.083,0.026,0.175,0.038,0.284c-0.581,0-1.133,0-1.726,0c-0.103-0.73-0.2-1.458-0.3-2.215c-0.629,0-1.243,0-1.894,0
		c-0.056,0.371-0.118,0.757-0.169,1.12c-0.048,0.3-0.075,0.611-0.132,0.906c-0.019,0.082-0.121,0.199-0.185,0.199
		c-0.502,0.026-1.006,0.014-1.569,0.014C66.249,38.509,66.87,35.109,67.495,31.693z M69.287,38.073
		c-0.22-1.396-0.429-2.748-0.643-4.113c-0.021,0-0.045,0.004-0.058,0.004c-0.23,1.368-0.448,2.732-0.677,4.109
		C68.367,38.073,68.795,38.073,69.287,38.073z"/>
	<path fill-rule="evenodd" clip-rule="evenodd" fill="#FFFFFF" d="M46.319,38.271c0.646,0,1.211,0,1.821,0
		c0,0.398,0.017,0.801,0,1.202c-0.03,0.782-0.199,1.532-0.86,2.02c-0.333,0.24-0.736,0.425-1.136,0.516
		c-0.626,0.14-1.272,0.105-1.888-0.152c-0.999-0.411-1.416-1.253-1.443-2.249c-0.047-1.845-0.047-3.701,0-5.542
		c0.031-1.274,0.75-2.243,2.141-2.458c0.963-0.144,1.796,0.03,2.485,0.746c0.383,0.404,0.576,0.891,0.644,1.43
		c0.052,0.435,0.053,0.878,0.078,1.34c-0.626,0-1.195,0-1.773,0c-0.022-0.396-0.039-0.784-0.067-1.162
		c-0.06-0.651-0.549-0.971-1.171-0.79c-0.297,0.075-0.448,0.272-0.493,0.566c-0.033,0.262-0.063,0.527-0.063,0.794
		c-0.014,1.519-0.014,3.043-0.005,4.566c0.005,0.263,0.03,0.529,0.065,0.795c0.054,0.427,0.339,0.637,0.818,0.633
		c0.51,0,0.813-0.195,0.843-0.626C46.348,39.363,46.319,38.832,46.319,38.271z"/>
	<path fill-rule="evenodd" clip-rule="evenodd" fill="#FFFFFF" d="M21.282,35.833c0,0.539,0,1.02,0,1.541c-0.74,0-1.471,0-2.223,0
		c0,1.016,0,1.999,0,3.024c1.032,0,2.064,0,3.111,0c0,0.511,0,1.003,0,1.514c-0.11,0.005-0.204,0.027-0.301,0.027
		c-1.423,0-2.847-0.011-4.268,0.004c-0.279,0-0.345-0.093-0.345-0.357c0.009-3.177,0.009-6.36,0-9.545
		c0-0.269,0.067-0.354,0.345-0.354c1.352,0.009,2.708,0.009,4.062,0c0.264,0,0.342,0.08,0.331,0.337
		c-0.017,0.39-0.004,0.785-0.004,1.208c-0.995,0-1.951,0-2.927,0c0,0.872,0,1.718,0,2.601
		C19.796,35.833,20.524,35.833,21.282,35.833z"/>
	<path fill-rule="evenodd" clip-rule="evenodd" fill="#FFFFFF" d="M13.05,33.24c-0.584,0-1.125,0-1.713,0
		c0-0.495-0.009-0.965,0.013-1.432c0-0.051,0.183-0.112,0.285-0.112c1.321-0.005,2.645-0.003,3.968-0.003
		c0.241,0,0.478-0.017,0.715,0.005c0.073,0.003,0.203,0.106,0.206,0.173c0.012,0.439,0.003,0.881,0.003,1.358
		c-0.566,0-1.109,0-1.687,0c0,2.899,0,5.78,0,8.699c-0.575,0-1.116,0.011-1.651-0.012c-0.047,0-0.113-0.095-0.133-0.157
		c-0.023-0.079-0.006-0.168-0.006-0.262c0-2.61,0-5.222,0-7.828C13.05,33.535,13.05,33.398,13.05,33.24z"/>
	<path fill-rule="evenodd" clip-rule="evenodd" fill="#FFFFFF" d="M74.265,31.693c0,2.918,0,5.792,0,8.693c0.919,0,1.813,0,2.758,0
		c0,0.489,0.004,0.963-0.013,1.425c-0.002,0.042-0.129,0.117-0.199,0.117c-1.37,0.011-2.744,0.011-4.117-0.007
		c-0.069,0-0.16-0.122-0.205-0.209c-0.035-0.041-0.011-0.127-0.011-0.2c0-3.143,0-6.283,0-9.423c0-0.396,0-0.396,0.407-0.396
		C73.325,31.693,73.771,31.693,74.265,31.693z"/>
	<path fill-rule="evenodd" clip-rule="evenodd" fill="#FFFFFF" d="M50.993,41.931c-0.546,0-1.074,0.009-1.612-0.009
		c-0.05-0.005-0.125-0.078-0.146-0.142c-0.024-0.08-0.005-0.175-0.005-0.268c0-3.143,0-6.283,0-9.423c0-0.396,0-0.396,0.403-0.396
		c0.446-0.002,0.89,0,1.359,0C50.993,35.109,50.993,38.509,50.993,41.931z"/>
	<path fill-rule="evenodd" clip-rule="evenodd" fill="#FFFFFF" d="M3.609,31.693c0,3.431,0,6.812,0,10.246c-0.417,0-0.828,0-1.236,0
		c-0.604-0.011-0.53,0.068-0.53-0.543c-0.005-2.898-0.005-5.795,0-8.691c0-0.316,0.026-0.642,0.034-0.963
		c0.334-0.019,0.666-0.044,0.997-0.049C3.104,31.688,3.345,31.693,3.609,31.693z"/>
	<path fill-rule="evenodd" clip-rule="evenodd" fill="#FFFFFF" d="M67.949,6.411c-0.395,0.432-0.76,0.84-1.136,1.243
		c-0.536,0.586-1.081,1.167-1.609,1.762c-0.197,0.228-0.399,0.338-0.715,0.327c-0.478-0.032-0.955-0.01-1.514-0.01
		c0.244-0.457,0.463-0.859,0.683-1.259c0.349-0.643,0.694-1.281,1.054-1.915c0.046-0.086,0.169-0.182,0.25-0.182
		c0.942-0.011,1.882-0.009,2.821-0.009C67.821,6.368,67.869,6.395,67.949,6.411z"/>
</g>
</svg>
